<?xml version="1.0" encoding="utf-8"?>
<!-- Generator: Adobe Illustrator 25.2.1, SVG Export Plug-In . SVG Version: 6.00 Build 0)  -->
<svg version="1.1" id="Layer_1" xmlns="http://www.w3.org/2000/svg" xmlns:xlink="http://www.w3.org/1999/xlink" x="0px" y="0px"
	 viewBox="0 0 832 300" style="enable-background:new 0 0 832 300;" xml:space="preserve">
<style type="text/css">
	.st0{fill-rule:evenodd;clip-rule:evenodd;fill:#FFFFFF;}
	.st1{fill-rule:evenodd;clip-rule:evenodd;fill:#6851FF;}
</style>
<path class="st0" d="M711.6,105.9c8.8,0,15.9-7.1,15.9-15.9S720.4,74,711.6,74c-8.8,0-15.9,7.1-15.9,15.9S702.8,105.9,711.6,105.9z
	 M328.8,88h32.9l34.7,82.9h1.5L432.7,88h32.9v123.4h-25.9v-80.3h-1L406,210.8h-17.6l-32.6-80h-1v80.7h-25.9V88z M515.6,213.1
	c-9,0-16.5-2.3-22.5-6.9c-6-4.6-8.9-11.5-8.9-20.7c0-6.9,1.7-12.3,5-16.3c3.3-3.9,7.7-6.8,13.1-8.6c5.4-1.8,11.3-3.1,17.5-3.6
	c8.2-0.8,14.1-1.6,17.6-2.5c3.5-0.9,5.3-2.8,5.3-5.8v-0.4c0-3.8-1.2-6.8-3.7-8.9c-2.4-2.1-5.9-3.1-10.3-3.1c-4.7,0-8.5,1-11.3,3
	s-4.6,4.6-5.5,7.7l-24.3-1.9c1.8-8.4,6.3-15.1,13.4-20.1c7.2-4.9,16.4-7.4,27.8-7.4c7,0,13.6,1.1,19.7,3.3c6.1,2.2,11,5.6,14.8,10.2
	c3.8,4.6,5.7,10.5,5.7,17.9v62.4H544v-12.8h-0.7c-2.3,4.3-5.7,7.8-10.3,10.5C528.3,211.8,522.5,213.1,515.6,213.1z M523.1,195.4
	c5.7,0,10.5-1.6,14.2-4.9c3.7-3.3,5.5-7.4,5.5-12.2v-9.8c-1,0.7-2.6,1.3-4.8,1.8c-2.1,0.5-4.4,1-6.9,1.4c-2.4,0.4-4.6,0.7-6.5,1
	c-4.6,0.6-8.3,1.9-11.2,3.8c-2.8,1.9-4.2,4.6-4.2,8.3c0,3.5,1.3,6.2,3.9,8C515.7,194.5,519,195.4,523.1,195.4z M601.8,240.1
	c7.3,4.9,17.3,7.4,30,7.4c9,0,17-1.3,24-4c6.9-2.7,12.4-6.6,16.3-11.8c4-5.2,6-11.7,6-19.3v-93.5H652v15.6h-1
	c-1.2-2.5-2.8-5.1-5.1-7.7c-2.2-2.6-5.1-4.7-8.7-6.4c-3.6-1.8-8-2.7-13.3-2.7c-6.9,0-13.3,1.8-19.1,5.3c-5.8,3.5-10.5,8.7-14,15.7
	c-3.5,7-5.2,15.8-5.2,26.3c0,10.2,1.7,18.7,5.1,25.4c3.5,6.7,8.1,11.6,13.9,14.9c5.8,3.3,12.3,4.9,19.4,4.9c7.6,0,13.5-1.5,17.9-4.6
	c4.4-3.1,7.4-6.6,9.1-10.4h1.1v16.9c0,6.1-1.9,10.4-5.6,13.1c-3.7,2.7-8.4,4-14.1,4c-5.8,0-10.2-1-13.4-3.1c-3.1-2-5.2-4.3-6.2-6.8
	l-24.3,3.2C590.1,229.2,594.6,235.2,601.8,240.1z M647,183.9c-3.5,4.6-8.3,6.9-14.7,6.9c-6.4,0-11.4-2.3-14.8-7
	c-3.4-4.7-5.1-11-5.1-19c0-7.9,1.7-14.3,5.1-19.3c3.4-5,8.4-7.5,14.8-7.5c6.4,0,11.3,2.4,14.7,7.3c3.4,4.9,5.2,11.4,5.2,19.5
	C652.3,173,650.5,179.3,647,183.9z M699,211.4v-92.6h26.2v92.6H699z M764,207.2c7,4,15.3,6,25,6c8.4,0,15.7-1.5,21.9-4.5
	c6.2-3,11-7.2,14.5-12.6c3.5-5.4,5.5-11.6,5.9-18.7h-24.8c-0.8,4.9-2.7,8.8-5.8,11.5c-3.1,2.7-6.9,4-11.4,4c-6.1,0-11-2.4-14.7-7.2
	c-3.7-4.9-5.5-11.7-5.5-20.6c0-8.8,1.8-15.5,5.5-20.3s8.6-7.2,14.7-7.2c4.8,0,8.7,1.4,11.6,4.3c3,2.8,4.8,6.5,5.5,11.2h24.8
	c-0.4-7.2-2.4-13.4-6-18.7c-3.6-5.3-8.5-9.4-14.7-12.4c-6.2-2.9-13.4-4.4-21.7-4.4c-9.6,0-17.8,2-24.8,6.1
	c-6.9,4-12.3,9.6-16.1,16.8c-3.7,7.2-5.6,15.5-5.6,25c0,9.4,1.8,17.6,5.5,24.8C751.7,197.5,757,203.1,764,207.2z"/>
<path class="st1" d="M124.4,0c13,15.9,27.3,30.7,42.8,44.1c-10.3,33.5-15.9,69-15.9,105.9s5.6,72.4,15.9,105.9
	c-15.5,13.5-29.8,28.2-42.8,44.1c-13-15.9-27.3-30.7-42.8-44.1c10.3-33.5,15.9-69,15.9-105.9c0-36.9-5.6-72.4-15.9-105.9
	C97.1,30.7,111.4,15.9,124.4,0z M52,232.7c-16.4-11.5-33.8-21.6-52-30.3c5.1-16.6,7.8-34.2,7.8-52.4c0-18.2-2.7-35.8-7.8-52.4
	c18.2-8.7,35.6-18.8,52-30.3c6.3,26.6,9.6,54.3,9.6,82.7C61.6,178.5,58.3,206.2,52,232.7z M187.2,150c0,28.5,3.3,56.2,9.6,82.7
	c16.4-11.5,33.8-21.6,52-30.3c-5.1-16.6-7.8-34.2-7.8-52.4c0-18.2,2.7-35.8,7.8-52.4c-18.2-8.7-35.6-18.8-52-30.3
	C190.5,93.8,187.2,121.5,187.2,150z"/>
</svg>
